<svg xmlns="http://www.w3.org/2000/svg" viewBox="0 0 20.74 19.35"><defs><style>.cls-1{fill:#000555;}</style></defs><g id="Layer_2" data-name="Layer 2"><g id="Item"><path class="cls-1" d="M3.47,14.12a1.31,1.31,0,0,1,.37,1,14.13,14.13,0,0,1-.51,2.59,14.89,14.89,0,0,0,3.41-1.16,1.33,1.33,0,0,1,.92-.09,10.83,10.83,0,0,0,2.71.35c5.18,0,9.07-3.64,9.07-7.78S15.55,1.3,10.37,1.3,1.3,4.94,1.3,9.07A7.14,7.14,0,0,0,3.47,14.12Zm-.64,5.06-.92.17a.34.34,0,0,1-.36-.47c.12-.27.22-.55.32-.82v0a12.69,12.69,0,0,0,.68-3A8.43,8.43,0,0,1,0,9.07C0,4.06,4.64,0,10.37,0S20.74,4.06,20.74,9.07s-4.64,9.08-10.37,9.08a11.53,11.53,0,0,1-3-.4A17.92,17.92,0,0,1,2.83,19.18Z"/></g></g></svg>