<svg xmlns="http://www.w3.org/2000/svg" viewBox="0 0 20.74 19.35"><defs><style>.cls-1{fill:#000555;}</style></defs><g id="Layer_2" data-name="Layer 2"><g id="Item"><path class="cls-1" d="M8.6,1.27c-.47.16-.95.18-1.42.32A5.4,5.4,0,0,0,5.09,2.76,14.75,14.75,0,0,0,2.7,5.59l4.57.6c-.06-.27-.06-.21,0,.19a1,1,0,0,1-.13.51,1.64,1.64,0,0,1-1.52.88L3.48,6.53l0,.07L3.27,4.67c.52-.8.62-1,.31-.6l-.26.31L2.79,5A14.63,14.63,0,0,0,1.71,6.43,4.36,4.36,0,0,0,1,8.49a3.34,3.34,0,0,0,.1,1.18c0,.15.46,1.35.32.81-.1-.37.08.33.1.4.05.23.06.47.12.69a3.56,3.56,0,0,0,1.2,1.68l.23.23c.18.21.15.17-.08-.11.07,0,.25.37.28.42a3.3,3.3,0,0,1,.32.62c-.12-.3-.14-.31,0-.05,0-.35-.06-.38-.07-.09A2.51,2.51,0,0,0,6,16.77a2.57,2.57,0,0,0,2.5-2.5A6.25,6.25,0,0,0,6.33,9.65,1.48,1.48,0,0,0,6,9.4c.33.74.47.94.41.6a2.51,2.51,0,0,0,0-.27,4.63,4.63,0,0,0-.25-.88l-.2-.47c.07.19.07.18,0,0a2.1,2.1,0,0,1,0,.79c-.09.19-.09.18,0,0L6,9c.28-.51-.32.37.05-.07.5-.61,1-1.22,1.5-1.85A2.64,2.64,0,0,0,6.3,2.86,3.2,3.2,0,0,0,2.84,4.41a4,4,0,0,0-.39,3.11A2.5,2.5,0,0,0,4.53,9.31,2.56,2.56,0,0,0,7,8.11l.44-.6c.33-.46-.27.3.07-.09s.63-.68,1-1c.16-.13.1-.09-.18.13l.26-.17q.36-.18-.15.06a1.14,1.14,0,0,1,.25-.06c.42-.1.85-.14,1.26-.28A2.56,2.56,0,0,0,11.67,3,2.52,2.52,0,0,0,8.6,1.27Z" transform="translate(-0.32)"/><path class="cls-1" d="M3.53,15.53a2.53,2.53,0,0,0-.77,1.23,1,1,0,0,0,1,1.27,4.14,4.14,0,0,0,2-.52A9.21,9.21,0,0,1,8,17a22.12,22.12,0,0,1,2.44,0,21.24,21.24,0,0,0,2.53-.24c3-.44,4.8-2.63,6.46-5l-1.86-.51a5.23,5.23,0,0,1-.31,1.79l2,.26c0-1.26.66-2.18.94-3.36a5.82,5.82,0,0,0-.36-3.32c-.91-2.3-3.41-3.11-5.23-4.55l-.71,1.71a4.25,4.25,0,0,1,1.68.72,4.14,4.14,0,0,0,1.91.52,1,1,0,0,0,.27-2C16.28,2.54,14.9,2,13.51,1.41A7.41,7.41,0,0,0,9.29.82a1,1,0,0,0-.74,1c0,1,.74,1.37,1.53,1.62,1,.31,2,.54,2.92.86a3,3,0,0,1,1.92,1.36,11.09,11.09,0,0,0,1.3,2.07c.75.83,2.23-.27,1.57-1.21A14.6,14.6,0,0,0,14.32,3c-.68-.48-1.44.19-1.51.87C12.69,5,13.94,6,14.65,6.82a12.71,12.71,0,0,1,2.22,2.89,1,1,0,0,0,1.82-.77,10.32,10.32,0,0,1-.4-1.64l-1.93.53a4.4,4.4,0,0,1-.24,2.46l2,.27a4,4,0,0,1,.52-1.73l-1.72-1a25.87,25.87,0,0,1-1.59,2.63c-.64.93.82,2.07,1.57,1.22l.15-.13-1.37-1.37a5.19,5.19,0,0,0-.5,1.25,1,1,0,0,0,1.46,1.13c.41-.22.8-.44,1.19-.68l-1-1.72a32,32,0,0,0-3.52,2.95c-.68.65,0,2.05,1,1.67l.54-.22L14,12.73a22.16,22.16,0,0,1-5.7,1.36c-1.1.16-.85,2.07.27,2a13.53,13.53,0,0,0,6-2,1,1,0,0,0-.24-1.83,7.58,7.58,0,0,0-3,0l-3.17.4.71,1.71a4.17,4.17,0,0,1,2.2-1.06c.91-.26,1.84-.44,2.76-.63,1.09-.21.86-2.07-.26-2L10.64,11l-1.32.13c-.25,0-1.08.23-1.32.11v1.72a12.87,12.87,0,0,1,3.56-.58l3.85-.46c1.05-.13,1.45-1.66.27-2L6.59,7.58,6.06,9.51l6.62,1.34a1,1,0,0,0,.53-1.93c-1.56-.55-3.53.11-5,.61-.83.28-1.06,1.78,0,1.93A1.55,1.55,0,0,0,10,10.64a1,1,0,0,0-.59-1.47,12.29,12.29,0,0,0-5-.15,1,1,0,0,0,0,2q4.56.46,9.13.69c1.18,0,1.29-1.61.26-2a24.7,24.7,0,0,0-5.63-.83l.27,2A6.7,6.7,0,0,0,11.6,9.62a2.11,2.11,0,0,0,.2-2.89c-.89-.83-2.2.11-2.25,1.16a1.61,1.61,0,0,0,2.09,1.52A1.93,1.93,0,0,0,12.94,7,2.8,2.8,0,0,0,10.37,5.3,6.08,6.08,0,0,0,7,6.2c-.87.48-2,1.28-1.57,2.44a1,1,0,0,0,1,.73,6.06,6.06,0,0,0,4.88-2.85,1,1,0,0,0-1.13-1.47A2.35,2.35,0,0,0,8.36,6.63c-.32.8.78,1.59,1.47,1.13a3.91,3.91,0,0,0,1.72-2.54,1,1,0,0,0-1.67-1,3.34,3.34,0,0,0-.77,3.94,1,1,0,0,0,1.13.45,4.52,4.52,0,0,0,3-2.54l-1.82-.78a3.13,3.13,0,0,0,1,3.13,1.72,1.72,0,0,0,2.64-.74A2.05,2.05,0,0,0,13.6,5.32,1.77,1.77,0,0,0,11.39,7l2-.27A5.22,5.22,0,0,0,9.62,3.29,1,1,0,0,0,8.39,4C7.9,5.6,9.88,6.69,11.26,6.32A1.51,1.51,0,0,0,12.5,4.78,1.91,1.91,0,0,0,11,3.15a1,1,0,0,0-1.13.46,1.42,1.42,0,0,0-.15,1.12c.2,1,1.63.86,1.93,0a6.42,6.42,0,0,0,.24-1l-1.47.6a5.49,5.49,0,0,0,3,.88l-.5-1.86a2.4,2.4,0,0,0-1.28,1.49l1.93.53a1.9,1.9,0,0,0-.48-1.8,1,1,0,0,0-1.57.21c-1,1.59-1.27,4.17.24,5.54a5,5,0,0,0,5.18.78L15.59,8.77a9.52,9.52,0,0,0-.56,1l1.83.77a4.71,4.71,0,0,0-.71-3.41c-.64-.92-2-1.72-2.78-.4a1,1,0,0,0,.87,1.5,1.72,1.72,0,0,0,1.64-.91l-1.82-.77A4.91,4.91,0,0,0,14,9.11c.21,1,1.62.85,1.93,0a1.61,1.61,0,0,0,0-.87l-.7,1.23a1.4,1.4,0,0,0,1.13-1c.46-1.2-1.48-1.72-1.93-.53l.27-.36c-.58.08-.77.76-.7,1.23l0-.2h1.93A2.88,2.88,0,0,1,16,7.06a1,1,0,0,0-1.82-.77l.08-.08.86,1.51c-.77,0-1,.07-.74.33a1.24,1.24,0,0,1,.19.26,2.47,2.47,0,0,1,.24.49A2.42,2.42,0,0,1,14.93,10a1,1,0,0,0,.58,1.18,1,1,0,0,0,1.25-.41c.17-.34.35-.66.55-1,.57-.89-.52-1.82-1.37-1.37a3.13,3.13,0,0,1-2.77-.48c-.84-.74-.43-2.29.08-3.1L11.68,5l0-.15a1,1,0,0,0,1.93.53c.06-.18.19-.22.36-.29.94-.42.42-1.87-.51-1.87a3.5,3.5,0,0,1-2-.61,1,1,0,0,0-1.47.6,5.39,5.39,0,0,1-.24,1h1.93l0-.19-.1.77.09-.16-1.13.46L10.53,5l.29-.71c-.12.15-.05.11-.26.11l-.19-.06c-.16-.13-.18-.07-.06.19l-1.23.7A3.2,3.2,0,0,1,11.43,7.3a1,1,0,0,0,2-.26c-.32.06-.41.14-.29.25q.57-.29.36-.66a2.47,2.47,0,0,1-.1-.77c.16-1.06-1.22-1.83-1.83-.77-.44.74-.91,1.49-1.82,1.63l1.13.46a1.32,1.32,0,0,1,.46-1.52l-1.68-1A1.91,1.91,0,0,1,8.82,6l1.47,1.13c.06-.15.25-.16.38-.18L9.54,5.51A4,4,0,0,1,6.38,7.37l1,.73c.1.26-.25.39.21.09L8,7.93a5.49,5.49,0,0,1,1.3-.54,2.52,2.52,0,0,1,1.19-.06,1.37,1.37,0,0,1,.47.19L11,7.6c0-.36.06-.08.07.84l-.86-.5c.31.47-2,.92-2.35,1-1.15.3-.8,1.86.27,2a22.37,22.37,0,0,1,5.1.76l.27-2Q8.95,9.49,4.39,9v2a11.06,11.06,0,0,1,4.44.08L8.24,9.63l.48-.1v1.93c1.12-.38,2.78-1,4-.61l.53-1.93L6.59,7.58C5.34,7.33,4.8,9.19,6.06,9.51l9.09,2.32.26-2L11,10.4a13.29,13.29,0,0,0-4,.79,1,1,0,0,0,0,1.72c.93.5,2.06.19,3.07.1l3.51-.34-.27-2a28.3,28.3,0,0,0-3.3.79A5.31,5.31,0,0,0,7.45,12.9c-.47.58-.24,1.84.71,1.71L11,14.24a7.36,7.36,0,0,1,2.76-.12l-.24-1.83a11.42,11.42,0,0,1-5,1.76l.26,2A23.09,23.09,0,0,0,15,14.45c1-.45.29-2.24-.77-1.82l-.54.21,1,1.67a30.23,30.23,0,0,1,3.12-2.64c1-.74.11-2.41-1-1.72-.39.23-.78.46-1.19.67L17.06,12a3,3,0,0,1,.31-.77A1,1,0,0,0,16,9.81a1.81,1.81,0,0,0-.55.44L17,11.46A24.1,24.1,0,0,0,18.6,8.83c.6-1.14-1.09-2.14-1.72-1a6.44,6.44,0,0,0-.8,2.74c-.08,1.2,1.59,1.25,2,.27a6.34,6.34,0,0,0,.24-3.53C18,6,16.17,6.58,16.36,7.83a9.37,9.37,0,0,0,.41,1.64l1.82-.77a11.65,11.65,0,0,0-1.85-2.57c-.33-.37-.67-.73-1-1.09s-1-.87-.92-1.19l-1.5.86a11.75,11.75,0,0,1,2.76,2.78l1.57-1.21a9.23,9.23,0,0,1-1-1.77A4.24,4.24,0,0,0,15.06,3a10.83,10.83,0,0,0-2.22-.85l-1.39-.39-.56-.16-.42-.13c-.25-.12-.23,0,.08.35l-.73,1a6.76,6.76,0,0,1,3.69.8L17.14,5l.26-2a3.73,3.73,0,0,1-1.67-.67,4.54,4.54,0,0,0-1.92-.57C13,1.8,12.41,3,13.1,3.54A26.85,26.85,0,0,0,15.75,5.4c.92.55,1.77,1,2.16,2a3.68,3.68,0,0,1-.07,2.93,7.7,7.7,0,0,0-.67,3,1,1,0,0,0,2,.27,7.05,7.05,0,0,0,.38-2.32,1,1,0,0,0-1.87-.5,15.53,15.53,0,0,1-2.28,2.71,5.9,5.9,0,0,1-3.56,1.38C10.39,15,9,14.8,7.56,15a12.06,12.06,0,0,0-2,.44c-.6.19-1.21.65-1.85.58l1,1.27A.45.45,0,0,1,5,17c1-.85-.45-2.26-1.42-1.42Z" transform="translate(-0.32)"/><path class="cls-1" d="M17.28,13.08l-.12,0-.3.12-.05,0a.41.41,0,0,0-.11.07l-.25.19-.05,0a.72.72,0,0,0-.2.32.66.66,0,0,0-.09.39.63.63,0,0,0,.09.38.67.67,0,0,0,.2.32l.2.16a1,1,0,0,0,.51.14l.26,0a1,1,0,0,0,.45-.26l.07-.06-.2.16A.72.72,0,0,1,17.9,15l-.24.1.15-.05a.75.75,0,0,0,.34-.18.87.87,0,0,0,.26-.28.85.85,0,0,0,.12-.37.77.77,0,0,0,0-.4l-.1-.24a1,1,0,0,0-.36-.36l-.24-.1a1,1,0,0,0-.53,0Z" transform="translate(-0.32)"/><path class="cls-1" d="M3.79,14.12a1.31,1.31,0,0,1,.37,1,13.36,13.36,0,0,1-.52,2.59,15,15,0,0,0,3.42-1.16A1.33,1.33,0,0,1,8,16.5a10.71,10.71,0,0,0,2.71.35c5.18,0,9.07-3.64,9.07-7.78S15.87,1.3,10.69,1.3,1.61,4.94,1.61,9.07A7.1,7.1,0,0,0,3.79,14.12Zm-.64,5.06-.92.17a.34.34,0,0,1-.36-.47c.12-.27.22-.55.32-.82v0a13.2,13.2,0,0,0,.68-3,8.43,8.43,0,0,1-2.55-6C.32,4.06,5,0,10.69,0S21.06,4.06,21.06,9.07s-4.65,9.08-10.37,9.08a11.53,11.53,0,0,1-3-.4A17.92,17.92,0,0,1,3.15,19.18Z" transform="translate(-0.32)"/></g></g></svg>